<svg xmlns="http://www.w3.org/2000/svg" width="64" height="64" fill="none"><rect width="64" height="64" fill="#FDDA16" rx="32"/><path fill="#000" d="M23.268 34.164a.138.138 0 0 0-.185.023c-.62.705-1.299.89-2.002.89-1.603 0-2.56-1.071-2.56-2.382a2.39 2.39 0 0 1 2.385-2.383c1.09 0 1.895.629 2.242 1.533a.102.102 0 0 1-.098.136h-2.477a.135.135 0 0 0-.139.135v1.157c0 .077.06.136.14.136h4.556a.179.179 0 0 0 .18-.154 3.31 3.31 0 0 0 .047-.56c0-2.333-1.997-4.214-4.433-4.214-2.435 0-4.432 1.881-4.432 4.214s1.997 4.213 4.432 4.213c1.59 0 2.834-.637 3.666-1.668a.1.1 0 0 0-.019-.145l-1.303-.93ZM29.082 33.901v-8.765a.135.135 0 0 0-.139-.136h-1.94a.135.135 0 0 0-.14.136v8.553c0 2.107.722 3.051 2.899 3.051h.25a.183.183 0 0 0 .184-.18v-1.524a.135.135 0 0 0-.139-.136h-.032c-.564 0-.943-.244-.943-.999ZM33.704 33.901v-8.765a.135.135 0 0 0-.139-.136h-1.94a.135.135 0 0 0-.14.136v8.553c0 2.107.722 3.051 2.898 3.051h.25a.183.183 0 0 0 .185-.18v-1.524a.135.135 0 0 0-.139-.136h-.032c-.564 0-.943-.244-.943-.999ZM8.348 39.855v-1.64c0-.078.06-.136.139-.136h.767c.485 0 .924-.452 1.146-.904 0-.005.005-.01.005-.014l.088-.262a.417.417 0 0 0-.014-.317l-3.467-7.807c-.041-.09.028-.19.13-.19h1.992c.074 0 .138.04.166.108l2.38 5.159c.033.072.14.072.171 0l2.219-5.15a.182.182 0 0 1 .171-.108h2.015c.102 0 .167.1.13.19l-4.05 9.209C11.825 39.213 10.65 40 9.26 40H8.49c-.078-.01-.143-.068-.143-.145ZM44.986 28.595h1.983c.074 0 .143.045.171.113l3.166 7.794c.037.09-.032.185-.13.185h-1.885a.186.186 0 0 1-.171-.113l-3.258-7.794c-.042-.09.023-.185.124-.185ZM49.534 28.595h1.983c.074 0 .143.045.171.113l3.166 7.794c.037.09-.032.185-.13.185H52.84a.186.186 0 0 1-.171-.113L49.41 28.78a.133.133 0 0 1 .124-.185ZM56.99 30.403l-.726-1.7a.186.186 0 0 0-.171-.113h-1.978c-.102 0-.167.1-.13.19l.744 1.7a.182.182 0 0 0 .171.108h1.96a.133.133 0 0 0 .13-.185ZM40.905 31.727h-1.613c-.11 0-.203.091-.203.2v1.45c0 .11.092.2.203.2h1.613c.111 0 .203-.09.203-.2v-1.45a.203.203 0 0 0-.203-.2Z"/><path fill="#000" d="M37.702 31.791a.239.239 0 0 0 .213-.136 2.415 2.415 0 0 1 2.172-1.374c.961 0 1.802.552 2.172 1.37.037.081.12.135.213.135h1.793c.097 0 .162-.076.134-.171-.494-1.818-2.214-3.178-4.307-3.178-2.094 0-3.818 1.356-4.308 3.178-.023.095.037.171.134.171h1.784v.005ZM42.486 33.536a.234.234 0 0 0-.213.135 2.38 2.38 0 0 1-2.172 1.37 2.415 2.415 0 0 1-2.172-1.374.234.234 0 0 0-.213-.136h-1.784c-.097 0-.162.077-.134.172.494 1.817 2.214 3.178 4.307 3.178 2.094 0 3.818-1.356 4.308-3.178.023-.095-.037-.172-.134-.172h-1.793v.005Z"/></svg>