<svg width="110" height="34" viewBox="0 0 110 34" fill="none" xmlns="http://www.w3.org/2000/svg">
<path d="M103.398 8.34743C103.449 8.26608 103.561 8.20508 103.663 8.20508H107.822H107.944C108.035 8.20508 108.249 8.30676 108.188 8.38811L95.3147 26.2233C95.2333 26.3352 95.1011 26.4063 94.9588 26.4063H91.044C90.8304 26.4063 90.5864 26.1623 90.7084 25.9793L103.398 8.34743Z" fill="#FDDA16"/>
<path d="M35.7895 20.7425C35.6574 20.651 35.4845 20.6713 35.3828 20.7933C34.0203 22.3796 32.5255 22.7965 30.9799 22.7965C27.4515 22.7965 25.3467 20.3866 25.3467 17.4378C25.3467 14.489 27.7057 12.0791 30.5935 12.0791C32.9933 12.0791 34.7625 13.4925 35.5252 15.5262C35.576 15.6685 35.4743 15.8312 35.3116 15.8312H29.8614C29.6886 15.8312 29.5564 15.9634 29.5564 16.1362V18.7393C29.5564 18.9122 29.6886 19.0444 29.8614 19.0444H35.6269H39.8874C40.0907 19.0444 40.2534 18.902 40.2839 18.6987C40.3551 18.2614 40.3856 17.8649 40.3856 17.4378C40.3856 12.191 35.9929 7.96094 30.6342 7.96094C25.2755 7.96094 20.8828 12.191 20.8828 17.4378C20.8828 22.6846 25.2755 26.9147 30.6342 26.9147C34.1321 26.9147 36.8674 25.4809 38.6977 23.1626C38.779 23.0609 38.7587 22.9185 38.657 22.8372L35.7895 20.7425Z" fill="black"/>
<path d="M48.58 20.1523V0.435908C48.58 0.263047 48.4478 0.130859 48.275 0.130859H44.0043C43.8314 0.130859 43.6992 0.263047 43.6992 0.435908V19.6743C43.6992 24.4128 45.2855 26.5379 50.0747 26.5379H50.6238C50.8475 26.5379 51.0306 26.3549 51.0306 26.1312V22.7045C51.0306 22.5316 50.8984 22.3994 50.7255 22.3994H50.6543C49.4138 22.3994 48.58 21.8504 48.58 20.1523Z" fill="black"/>
<path d="M58.748 20.1523V0.435908C58.748 0.263047 58.6158 0.130859 58.4429 0.130859H54.1722C53.9994 0.130859 53.8672 0.263047 53.8672 0.435908V19.6743C53.8672 24.4128 55.4534 26.5379 60.2427 26.5379H60.7918C61.0155 26.5379 61.1985 26.3549 61.1985 26.1312V22.7045C61.1985 22.5316 61.0663 22.3994 60.8935 22.3994H60.8223C59.5818 22.3994 58.748 21.8504 58.748 20.1523Z" fill="black"/>
<path d="M2.96565 33.5429V29.8518C2.96565 29.679 3.09784 29.5468 3.2707 29.5468H4.95864C6.02631 29.5468 6.9923 28.53 7.48037 27.5131C7.48037 27.503 7.49054 27.4928 7.49054 27.4826L7.68374 26.8929C7.76509 26.659 7.75492 26.4048 7.65324 26.1811L0.0270095 8.62043C-0.0645052 8.41706 0.0880181 8.19336 0.311721 8.19336H4.69426C4.85695 8.19336 4.99931 8.28488 5.06032 8.4374L10.297 20.0394C10.3682 20.2021 10.602 20.2021 10.6732 20.0394L15.554 8.45774C15.615 8.30521 15.7675 8.2137 15.9302 8.2137H20.3636C20.5873 8.2137 20.7297 8.4374 20.6483 8.64077L11.7409 29.3536C10.6122 32.099 8.02946 33.8683 4.96881 33.8683H3.28087C3.10801 33.848 2.96565 33.7158 2.96565 33.5429Z" fill="black"/>
<path d="M83.5683 8.21484H87.9305C88.0932 8.21484 88.2457 8.31653 88.3067 8.46905L95.272 25.9992C95.3534 26.2026 95.2008 26.4161 94.9873 26.4161H90.8386C90.6759 26.4161 90.5234 26.3144 90.4624 26.1619L83.2938 8.63174C83.2022 8.42838 83.3446 8.21484 83.5683 8.21484Z" fill="black"/>
<path d="M93.5751 8.21484H97.9373C98.1 8.21484 98.2525 8.31653 98.3135 8.46905L105.279 25.9992C105.36 26.2026 105.208 26.4161 104.994 26.4161H100.845C100.683 26.4161 100.53 26.3144 100.469 26.1619L93.3005 8.63174C93.2192 8.42838 93.3615 8.21484 93.5751 8.21484Z" fill="black"/>
<path d="M109.976 12.2826L108.38 8.45929C108.319 8.30676 108.166 8.20508 108.004 8.20508H103.652C103.428 8.20508 103.286 8.42878 103.367 8.63214L105.004 12.4554C105.065 12.608 105.217 12.6995 105.38 12.6995H109.692C109.915 12.7096 110.058 12.4859 109.976 12.2826Z" fill="black"/>
<path d="M74.5938 15.2617H71.0451C70.801 15.2617 70.5977 15.4651 70.5977 15.7091V18.9731C70.5977 19.2172 70.801 19.4206 71.0451 19.4206H74.5938C74.8378 19.4206 75.0412 19.2172 75.0412 18.9731V15.7091C75.0412 15.4651 74.8378 15.2617 74.5938 15.2617Z" fill="#FDDA16"/>
<path d="M67.5432 15.4043C67.7466 15.4043 67.9195 15.2822 68.011 15.0992C68.8346 13.2994 70.6852 12.008 72.7901 12.008C74.9051 12.008 76.7557 13.2486 77.5692 15.089C77.6505 15.2721 77.8336 15.3941 78.0369 15.3941H81.9822C82.1958 15.3941 82.3381 15.2212 82.2771 15.0077C81.1891 10.92 77.4065 7.85938 72.8002 7.85938C68.194 7.85938 64.4012 10.9099 63.3234 15.0077C63.2725 15.2212 63.4047 15.3941 63.6183 15.3941H67.5432V15.4043Z" fill="black"/>
<path d="M78.0676 19.3285C77.8642 19.3285 77.6812 19.4506 77.5998 19.6336C76.7762 21.474 74.9256 22.7146 72.8207 22.7146C70.7159 22.7146 68.8653 21.4232 68.0416 19.6234C67.9603 19.4404 67.7773 19.3184 67.5739 19.3184H63.6489C63.4354 19.3184 63.293 19.4912 63.3541 19.7048C64.4421 23.7924 68.2247 26.8531 72.8309 26.8531C77.4371 26.8531 81.2299 23.8026 82.3078 19.7048C82.3586 19.4912 82.2264 19.3184 82.0129 19.3184H78.0676V19.3285Z" fill="black"/>
</svg>
